<?xml version="1.0" encoding="utf-8"?>
<!-- Generator: Adobe Illustrator 15.0.0, SVG Export Plug-In . SVG Version: 6.00 Build 0)  -->
<!DOCTYPE svg PUBLIC "-//W3C//DTD SVG 1.1//EN" "http://www.w3.org/Graphics/SVG/1.1/DTD/svg11.dtd">
<svg version="1.1"  xmlns="http://www.w3.org/2000/svg" xmlns:xlink="http://www.w3.org/1999/xlink" x="0px" y="0px"
	 width="48px" height="48px" viewBox="0 0 48 48" enable-background="new 0 0 48 48" xml:space="preserve">
<g>
	<polygon fill="#f1ff2e" points="8.016,7 8.016,15.998 8.015,16 8.016,15.999 8.016,16 17.007,16 	"/>
	<path fill="#f1ff2e" d="M37.956,29.461c-0.519,1.318-1.222,2.542-2.069,3.648l3.17,2.429c1.074-1.401,1.965-2.952,2.621-4.621
		L37.956,29.461z"/>
	<path fill="#f1ff2e" d="M29.467,37.948l1.457,3.719c1.602-0.635,3.104-1.468,4.459-2.49l-2.396-3.194
		C31.916,36.789,30.73,37.447,29.467,37.948z"/>
	<path fill="#f1ff2e" d="M24,39c-0.319,0-0.631-0.027-0.945-0.048l-0.252,3.987C23.201,42.964,23.596,43,24,43
		c0.768,0,1.52-0.063,2.262-0.15l-0.477-3.969C25.199,38.951,24.605,39,24,39z"/>
	<path fill="#f1ff2e" d="M15.477,40.975c0.891,0.447,1.821,0.83,2.784,1.135l1.208-3.813c-0.761-0.24-1.494-0.542-2.197-0.896
		L15.477,40.975z"/>
	<path fill="#f1ff2e" d="M12.578,33.672l-3.073,2.585c0.653,0.771,1.367,1.49,2.134,2.147l2.603-3.031
		C13.639,34.855,13.093,34.277,12.578,33.672z"/>
	<path fill="#f1ff2e" d="M5.928,29.832c0.32,0.984,0.714,1.938,1.184,2.845l3.572-1.825c-0.372-0.719-0.687-1.473-0.942-2.252
		L5.928,29.832z"/>
	<path fill="#f1ff2e" d="M9.05,23.011l-3.986-0.257C5.036,23.168,5,23.58,5,24c0,0.541,0.031,1.074,0.076,1.604l3.984-0.342
		C9.025,24.846,9,24.426,9,24C9,23.666,9.028,23.34,9.05,23.011z"/>
	<path fill="#f1ff2e" d="M24,5c-6.389,0-12.038,3.18-15.484,8.028l3.264,2.304C14.501,11.508,18.959,9,24,9c8.271,0,15,6.729,15,15
		c0,0.42-0.029,0.833-0.063,1.245l3.981,0.331C42.963,25.057,43,24.532,43,24C43,13.523,34.477,5,24,5z"/>
</g>
</svg>
